<?xml version="1.0" standalone="no"?>
<!DOCTYPE svg PUBLIC "-//W3C//DTD SVG 20010904//EN"
 "http://www.w3.org/TR/2001/REC-SVG-20010904/DTD/svg10.dtd">
<svg version="1.0" xmlns="http://www.w3.org/2000/svg"
 width="700.000000pt" height="700.000000pt" viewBox="0 0 700.000000 700.000000"
 preserveAspectRatio="xMidYMid meet">
<metadata>
Created by potrace 1.14, written by Peter Selinger 2001-2017
</metadata>
<g transform="translate(0.000000,700.000000) scale(0.100000,-0.100000)"
fill="#000000" stroke="none">
<path d="M2337 6993 c-2 -5 -4 -530 -3 -1167 l1 -1160 1145 0 c630 -1 1154 1
1166 2 l21 4 0 1164 0 1164 -1163 0 c-640 0 -1165 -3 -1167 -7z"/>
<path d="M4669 4666 c0 -1 -2 -525 -2 -1166 l-2 -1165 -2315 -2 c-1273 -1
-2323 -2 -2332 -2 -17 -1 -18 -63 -18 -1166 l0 -1165 3500 0 3500 0 -2 2332
-3 2333 -1162 1 c-640 0 -1163 0 -1164 0z"/>
</g>
</svg>
